<svg width="24" height="24" viewBox="0 0 24 24" fill="none" xmlns="http://www.w3.org/2000/svg">
<path d="M14.9097 11.7575L7.37695 4.2248C7.17823 4.02609 7.08144 3.79211 7.08657 3.52288C7.09171 3.25366 7.19363 3.0197 7.39235 2.82098C7.59105 2.62226 7.82502 2.52291 8.09425 2.52291C8.36348 2.52291 8.59745 2.62226 8.79615 2.82098L16.4673 10.4768C16.6481 10.6575 16.7821 10.8601 16.8693 11.0844C16.9564 11.3088 17 11.5332 17 11.7575C17 11.9819 16.9564 12.2062 16.8693 12.4306C16.7821 12.6549 16.6481 12.8575 16.4673 13.0383L8.79615 20.7094C8.59745 20.9081 8.36092 21.0049 8.08655 20.9998C7.8122 20.9947 7.57567 20.8927 7.37695 20.694C7.17823 20.4953 7.07887 20.2613 7.07887 19.9921C7.07887 19.7229 7.17823 19.4889 7.37695 19.2902L14.9097 11.7575Z" fill="#FAFAFA"/>
</svg>
