<svg width="49" height="49" viewBox="0 0 49 49" fill="none" xmlns="http://www.w3.org/2000/svg">
<path d="M3.58 16.72C3.92 17.68 4.88 18.16 5.48 18.16C6.34 18.16 6.84 17.86 6.84 17.36C6.84 16.9 6.12 16.66 5.2 16.32C3.86 15.84 1.98 15.18 1.98 13.28C1.98 11.48 3.6 10.44 5.68 10.44C6.92 10.44 8.68 11.16 9.2 12.92L7.1 13.72C6.76 12.7 6.04 12.6 5.68 12.6C4.94 12.6 4.56 12.86 4.56 13.28C4.56 13.72 5.24 13.94 6.18 14.28C7.54 14.76 9.4 15.44 9.4 17.3C9.4 19.14 7.84 20.32 5.48 20.32C3.96 20.32 2.24 19.3 1.6 17.84L3.58 16.72ZM15.7847 17.88C16.4247 17.88 17.2047 17.5 17.7247 16.92L19.4447 18.72C18.6247 19.66 17.0847 20.32 15.8447 20.32C12.9647 20.32 10.9247 18.28 10.9247 15.42C10.9247 12.54 12.9647 10.52 15.8447 10.52C17.2047 10.52 18.5647 11.16 19.4447 12.12L17.7247 13.9C17.1847 13.32 16.4247 12.96 15.7847 12.96C14.3847 12.96 13.5047 13.9 13.5047 15.42C13.5047 16.94 14.3847 17.88 15.7847 17.88ZM21.0778 20.28V10.54H23.6378V11.94C24.2978 11 25.4578 10.48 26.3778 10.54V12.86C24.6578 12.76 23.6378 14.28 23.6378 15.54V20.28H21.0778ZM32.4128 18.16C33.7328 18.16 34.5728 17.12 34.5728 15.42C34.5728 13.74 33.7328 12.68 32.4128 12.68C31.0928 12.68 30.2528 13.72 30.2528 15.42C30.2528 17.12 31.0728 18.16 32.4128 18.16ZM32.4128 10.52C35.1928 10.52 37.1528 12.54 37.1528 15.42C37.1528 18.28 35.1928 20.32 32.4128 20.32C29.6328 20.32 27.6728 18.28 27.6728 15.42C27.6728 12.54 29.6328 10.52 32.4128 10.52ZM39.0252 5.82H41.6052V20.26H39.0252V5.82ZM44.0838 5.82H46.6638V20.26H44.0838V5.82Z" fill="#6C6C6C"/>
<path d="M24.7425 39.9097L32.2752 32.377C32.4739 32.1782 32.7079 32.0814 32.9771 32.0866C33.2463 32.0917 33.4803 32.1936 33.679 32.3924C33.8777 32.5911 33.9771 32.825 33.9771 33.0942C33.9771 33.3635 33.8777 33.5974 33.679 33.7961L26.0232 41.4673C25.8425 41.6481 25.6399 41.7821 25.4156 41.8693C25.1912 41.9564 24.9668 42 24.7425 42C24.5181 42 24.2938 41.9564 24.0694 41.8693C23.8451 41.7821 23.6425 41.6481 23.4617 41.4673L15.7906 33.7961C15.5919 33.5974 15.4951 33.3609 15.5002 33.0865C15.5053 32.8122 15.6073 32.5757 15.806 32.377C16.0047 32.1782 16.2387 32.0789 16.5079 32.0789C16.7771 32.0789 17.0111 32.1782 17.2098 32.377L24.7425 39.9097Z" fill="#6C6C6C"/>
</svg>
