<svg width="38" height="44" viewBox="0 0 38 44" fill="none" xmlns="http://www.w3.org/2000/svg">
<path d="M2.464 13.376C2.736 14.144 3.504 14.528 3.984 14.528C4.672 14.528 5.072 14.288 5.072 13.888C5.072 13.52 4.496 13.328 3.76 13.056C2.688 12.672 1.184 12.144 1.184 10.624C1.184 9.184 2.48 8.352 4.144 8.352C5.136 8.352 6.544 8.928 6.96 10.336L5.28 10.976C5.008 10.16 4.432 10.08 4.144 10.08C3.552 10.08 3.248 10.288 3.248 10.624C3.248 10.976 3.792 11.152 4.544 11.424C5.632 11.808 7.12 12.352 7.12 13.84C7.12 15.312 5.872 16.256 3.984 16.256C2.768 16.256 1.392 15.44 0.88 14.272L2.464 13.376ZM12.2278 14.304C12.7398 14.304 13.3638 14 13.7798 13.536L15.1558 14.976C14.4998 15.728 13.2678 16.256 12.2758 16.256C9.97175 16.256 8.33975 14.624 8.33975 12.336C8.33975 10.032 9.97175 8.416 12.2758 8.416C13.3638 8.416 14.4518 8.928 15.1558 9.696L13.7798 11.12C13.3478 10.656 12.7398 10.368 12.2278 10.368C11.1078 10.368 10.4038 11.12 10.4038 12.336C10.4038 13.552 11.1078 14.304 12.2278 14.304ZM16.4622 16.224V8.432H18.5103V9.552C19.0383 8.8 19.9663 8.384 20.7023 8.432V10.288C19.3263 10.208 18.5103 11.424 18.5103 12.432V16.224H16.4622ZM25.5303 14.528C26.5863 14.528 27.2583 13.696 27.2583 12.336C27.2583 10.992 26.5863 10.144 25.5303 10.144C24.4743 10.144 23.8023 10.976 23.8023 12.336C23.8023 13.696 24.4583 14.528 25.5303 14.528ZM25.5303 8.416C27.7543 8.416 29.3223 10.032 29.3223 12.336C29.3223 14.624 27.7543 16.256 25.5303 16.256C23.3063 16.256 21.7383 14.624 21.7383 12.336C21.7383 10.032 23.3063 8.416 25.5303 8.416ZM30.8201 4.656H32.8841V16.208H30.8201V4.656ZM34.867 4.656H36.931V16.208H34.867V4.656Z" fill="#6C6C6C"/>
<path d="M19.2425 34.9097L26.7752 27.377C26.9739 27.1782 27.2079 27.0814 27.4771 27.0866C27.7463 27.0917 27.9803 27.1936 28.179 27.3924C28.3777 27.5911 28.4771 27.825 28.4771 28.0942C28.4771 28.3635 28.3777 28.5974 28.179 28.7961L20.5232 36.4673C20.3425 36.6481 20.1399 36.7821 19.9156 36.8693C19.6912 36.9564 19.4668 37 19.2425 37C19.0181 37 18.7938 36.9564 18.5694 36.8693C18.3451 36.7821 18.1425 36.6481 17.9617 36.4673L10.2906 28.7961C10.0919 28.5974 9.99508 28.3609 10.0002 28.0865C10.0053 27.8122 10.1073 27.5757 10.306 27.377C10.5047 27.1782 10.7387 27.0789 11.0079 27.0789C11.2771 27.0789 11.5111 27.1782 11.7098 27.377L19.2425 34.9097Z" fill="#6C6C6C"/>
</svg>
